<?xml version="1.0" encoding="utf-8"?>
<!-- Generator: Adobe Illustrator 22.1.0, SVG Export Plug-In . SVG Version: 6.00 Build 0)  -->
<svg version="1.2" baseProfile="tiny" id="Layer_1" xmlns="http://www.w3.org/2000/svg" xmlns:xlink="http://www.w3.org/1999/xlink"
	 x="0px" y="0px" viewBox="0 0 216 90.013" xml:space="preserve">
<g>
	<path fill="#FFFFFF" d="M44.801,1.23l0.461,1.076C37.5,16.522,28.586,33.658,20.902,48.028h6.916
		c5.994,0,9.375-2.382,14.985-13.832h2.92l-1.46,16.983H0.307L0,49.872C7.608,36.578,17.213,18.366,24.821,4.38h-5.609
		c-6.916,0-7.915,1.614-13.371,13.678H2.997V1.23H44.801z"/>
	<path fill="#FFFFFF" d="M100.337,26.204c0,16.137-7.992,26.204-26.204,26.204c-18.058,0-26.127-10.143-26.127-26.204
		C48.006,9.99,56.075,0,74.133,0C92.423,0,100.337,9.913,100.337,26.204z M74.133,49.488c5.763,0,7.992-6.686,7.992-23.284
		c0-11.066-0.692-23.361-7.992-23.361c-4.303,0-7.915,4.227-7.915,23.361C66.219,43.801,68.985,49.488,74.133,49.488z"/>
	<path fill="#FFFFFF" d="M122.693,1.23c3.304,8.376,7.454,18.75,10.989,27.357h0.154c2.92-9.068,5.764-17.597,8.53-27.357h21.824
		v2.382c-4.303,0.154-4.688,0.691-4.688,4.457v36.271c0,3.765,0.384,4.226,4.688,4.38v2.459h-26.358V48.72
		c4.303-0.154,4.687-0.615,4.687-4.38V12.91h-0.615l-10.681,38.269h-7.608L110.629,12.91h-0.615v11.68
		c0,6.609,0.23,17.06,0.692,19.672c0.461,3.074,1.614,3.765,3.612,3.996l3.228,0.461v2.459h-17.137V48.72l2.613-0.538
		c1.844-0.307,2.689-0.692,2.997-3.765c0.384-2.766,0.615-13.217,0.615-19.826V8.069c0-3.765-0.384-4.303-4.688-4.457V1.23H122.693z
		"/>
	<path fill="#FFFFFF" d="M211.159,18.52h-2.92c-3.381-9.682-7.146-15.753-13.217-15.753c-10.22,0-11.066,16.291-11.066,22.823
		c0,7.684,0.077,23.899,9.913,23.899c1.691,0,2.459-1.153,2.459-3.151V33.888c0-3.689-0.384-4.687-5.994-4.995v-2.382H216v2.382
		c-3.227,0.308-3.612,1.306-3.612,4.995v14.908c-4.841,2.536-12.295,3.612-18.289,3.612c-7.069,0-13.525-0.769-18.75-3.996
		c-5.149-3.304-9.606-9.683-9.606-21.824c0-6.378,1.46-13.217,5.533-18.058C175.35,3.689,181.343,0,195.098,0
		c5.917,0,12.679,1.537,16.061,3.458V18.52z"/>
	<path fill="#FFFFFF" d="M72.315,84.372c0.092,0.5-0.035,0.987-0.363,1.377c-2.364,2.815-5.408,4.265-9.092,4.265
		c-7.512,0-13.006-5.585-13.006-13.074c0-7.492,5.495-13.077,13.006-13.077c3.643,0,6.78,1.456,9.088,4.28
		c0.318,0.39,0.439,0.869,0.345,1.365c-0.094,0.497-0.385,0.897-0.826,1.142l-1.14,0.635c-0.71,0.396-1.593,0.225-2.105-0.407
		c-1.287-1.588-3.315-2.575-5.363-2.575c-4.932,0-8.141,3.857-8.141,8.635c0,4.761,3.229,8.633,8.141,8.633
		c2.052,0,4.08-0.965,5.363-2.57c0.508-0.634,1.395-0.811,2.105-0.42l1.151,0.634C71.927,83.464,72.221,83.868,72.315,84.372z"/>
	<path fill="#FFFFFF" d="M99.469,86.816v1.109c0,0.918-0.748,1.665-1.666,1.665H85.451c-0.918,0-1.665-0.747-1.665-1.665V65.916
		c0-0.918,0.747-1.665,1.665-1.665h1.427c0.917,0,1.665,0.747,1.665,1.665v19.233h9.259C98.72,85.148,99.467,85.898,99.469,86.816z"
		/>
	<path fill="#FFFFFF" d="M133.367,88.858c-0.316,0.468-0.816,0.734-1.381,0.734h-1.73c-0.691,0-1.293-0.408-1.548-1.049
		l-1.662-4.166h-10.458l-1.662,4.166c-0.255,0.644-0.857,1.049-1.548,1.049h-1.732c-0.565,0-1.063-0.265-1.379-0.734
		c-0.316-0.467-0.375-1.028-0.165-1.554l8.843-22.007c0.257-0.642,0.855-1.046,1.546-1.046h2.617c0.69,0,1.289,0.401,1.546,1.041
		l8.876,22.011C133.743,87.826,133.685,88.387,133.367,88.858z M125.441,79.932l-3.627-9.235l-3.653,9.235H125.441z"/>
	<path fill="#FFFFFF" d="M165.902,65.916v22.009c0,0.918-0.747,1.665-1.665,1.665h-1.689c-0.543,0-1.024-0.243-1.346-0.683
		l-11.829-16.176v15.195c0,0.918-0.748,1.665-1.666,1.665h-1.426c-0.918,0-1.665-0.747-1.665-1.665V65.918
		c0-0.918,0.747-1.665,1.665-1.665h1.868c0.543,0,1.02,0.241,1.342,0.676l11.652,15.811V65.916c0-0.918,0.747-1.665,1.666-1.665
		h1.426C165.153,64.251,165.9,64.998,165.902,65.916z"/>
</g>
</svg>
