<?xml version="1.0" encoding="UTF-8"?>
<svg baseProfile="tiny" version="1.2" viewBox="0 0 256 256" xml:space="preserve" xmlns="http://www.w3.org/2000/svg">
<g fill="#fff">
	<path d="m184.57 148.03l1e-3 -15.831c20.14-5.794 11.712-45.926 24.995-53.853 16.198-9.664 34.988-19.764 35.124-17.734 0.926 13.931-14.956 43.519-15.245 44.54-0.743 2.619 21.142-11.928 21.054-9.185-0.352 10.967-10.184 29.117-23.78 39.086 0 0 21.34-4.164 20.701-2.17-3.276 10.213-20.956 19.683-31.688 21.143-2.149 0.291 21.888 3.328 20.623 5.556-6.035 10.627-23.296 12.823-35.345 15.034-0.934 0.17 12.969 9.374 13.188 11.204 0.208 1.737-15.244 7.302-27.3-1.559-2.924-2.149-5.545-4.209-7.916-6.192 3.669-9.347 5.583-19.523 5.588-30.039z"/>
	<path d="m71.43 148.03l-1e-3 -15.831c-20.14-5.794-11.712-45.926-24.995-53.853-16.198-9.664-34.988-19.764-35.124-17.734-0.926 13.931 14.956 43.519 15.245 44.54 0.743 2.619-21.142-11.928-21.054-9.185 0.352 10.967 10.184 29.117 23.78 39.086 0 0-21.34-4.164-20.701-2.17 3.276 10.213 20.956 19.683 31.688 21.143 2.149 0.291-21.888 3.328-20.623 5.556 6.035 10.627 23.296 12.823 35.345 15.034 0.934 0.17-12.969 9.374-13.188 11.204-0.208 1.737 15.244 7.302 27.3-1.559 2.924-2.149 5.545-4.209 7.916-6.192-3.669-9.347-5.583-19.523-5.588-30.039z"/>
		<polygon points="127.98 48.013 127.98 48.013 127.98 48.013 133.07 50.563 133.07 45.47 127.98 48.013 130.53 42.924 125.44 42.924 127.98 48.013 122.89 45.47 122.89 50.563"/>
		<path d="m127.98 51.632c0.623 0 1.235 0.041 1.847 0.078l-1.847-3.696-1.847 3.696c0.612-0.037 1.224-0.078 1.847-0.078z"/>
		<path d="m158.56 62.346c-1.595-0.601-3.378 0.204-3.979 1.802-0.165 0.439-0.221 0.889-0.187 1.327-0.145-0.087-0.302-0.162-0.467-0.224-1.598-0.601-3.381 0.204-3.982 1.802s0.204 3.378 1.802 3.982c0.679 0.254 1.389 0.254 2.029 0.05-0.844 1.975-3.194 6.281-7.317 5.222-4.281-1.101-3.722-6.052-3.722-6.052l-2.744-0.852s-1.204 4.817-5.599 4.336c-4.233-0.461-4.912-5.32-5.004-7.466 0.525 0.419 1.19 0.671 1.917 0.671 1.707 0 3.087-1.383 3.087-3.09s-1.383-3.09-3.087-3.09c-0.176 0-0.346 0.017-0.517 0.048 0.187-0.397 0.293-0.841 0.293-1.308 0-1.707-1.383-3.09-3.087-3.09-1.707 0-3.09 1.383-3.09 3.09 0 0.467 0.106 0.911 0.293 1.308-0.168-0.028-0.338-0.048-0.517-0.048-1.707 0-3.087 1.383-3.087 3.09s1.383 3.09 3.087 3.09c0.724 0 1.389-0.251 1.917-0.671-0.092 2.149-0.774 7.005-5.004 7.466-4.395 0.478-5.599-4.336-5.599-4.336l-2.744 0.852s0.559 4.948-3.722 6.052c-4.124 1.062-6.474-3.244-7.317-5.222 0.64 0.204 1.352 0.207 2.028-0.05 1.598-0.601 2.403-2.383 1.802-3.982-0.601-1.598-2.383-2.403-3.979-1.802-0.165 0.061-0.319 0.14-0.467 0.224 0.034-0.436-0.022-0.889-0.187-1.327-0.601-1.598-2.383-2.403-3.979-1.802-6e-3 3e-3 -8e-3 3e-3 -8e-3 6e-3l2.179 5.784c3e-3 -3e-3 8e-3 -3e-3 8e-3 -3e-3l6.969 18.494 42.835-3e-3 6.969-18.494c3e-3 3e-3 6e-3 3e-3 0.011 3e-3l2.179-5.784c-6e-3 0-8e-3 0-0.011-3e-3h-2e-3z"/>
		<path d="m108.81 66.014c0.568 1.511 0.515 3.153-0.15 4.623-0.406 0.899-1.012 1.668-1.763 2.259 0.436 0.383 0.9 0.623 1.369 0.623 0.163 0 0.341-0.024 0.527-0.072 1.613-0.416 1.571-2.317 1.523-2.859l-0.274-2.429 2.334-0.725 2.744-0.852 2.985-0.927 0.758 3.033c5e-3 0.021 0.576 2.131 2.13 2.131 0.091 0 0.185-5e-3 0.282-0.016 0.726-0.079 1.231-0.552 1.583-1.184-2.443-0.776-4.218-3.066-4.218-5.764 0-2.39 1.393-4.46 3.41-5.441 0.515-2.815 2.986-4.955 5.947-4.955 2.96 0 5.43 2.14 5.944 4.955 2.016 0.981 3.41 3.051 3.41 5.441 0 2.697-1.775 4.988-4.218 5.764 0.352 0.632 0.857 1.105 1.583 1.184 0.098 0.011 0.193 0.016 0.284 0.016 1.523 0 2.111-2.075 2.127-2.132l0.758-3.033 2.985 0.927 2.744 0.852 2.334 0.725-0.274 2.429c-0.011 0.098-0.25 2.403 1.52 2.858 0.187 0.048 0.364 0.072 0.527 0.072 0.47 0 0.936-0.241 1.374-0.627-2.01-1.588-2.863-4.355-1.915-6.877 0.393-1.045 1.068-1.932 1.912-2.6-4.069-6.138-11.998-10.305-21.113-10.305-9.107 0-17.028 4.159-21.101 10.289 0.855 0.67 1.536 1.564 1.932 2.617z"/>
	<path d="m181.61 107.25c0-7.95-9.824-17.678-17.897-17.678h-71.435c-8.073 0-17.895 9.728-17.895 17.678l1e-3 40.779c7e-3 14.55 3.818 28.939 11.579 41.246 8.047 12.761 20.763 24.917 42.033 24.92h1e-3 7e-3c21.274 0 33.987-12.158 42.034-24.92 7.761-12.308 11.57-26.697 11.576-41.247l-4e-3 -40.778zm-14.074 80.449c-9.989 15.841-22.92 23.541-39.534 23.541h-7e-3v-64.949h-50.657v-39.04c0-6.329 8.517-14.722 14.94-14.722h35.719v53.762h50.659l2e-3 1.931c-0.041 14.353-3.885 28-11.122 39.477z"/>
</g>
</svg>