<?xml version="1.0" encoding="utf-8"?>
<!-- Generator: Adobe Illustrator 22.1.0, SVG Export Plug-In . SVG Version: 6.00 Build 0)  -->
<svg version="1.2" baseProfile="tiny" id="Layer_1" xmlns="http://www.w3.org/2000/svg" xmlns:xlink="http://www.w3.org/1999/xlink"
	 x="0px" y="0px" viewBox="0 0 256 256" xml:space="preserve">
<g id="ZOMG">
	<path id="Wing_Right" fill="#FFFFFF" d="M184.57,148.029l0.001-15.831c20.14-5.794,11.712-45.926,24.995-53.853
		c16.198-9.664,34.988-19.764,35.124-17.734c0.926,13.931-14.956,43.519-15.245,44.54c-0.743,2.619,21.142-11.928,21.054-9.185
		c-0.352,10.967-10.184,29.117-23.78,39.086c0,0,21.34-4.164,20.701-2.17c-3.276,10.213-20.956,19.683-31.688,21.143
		c-2.149,0.291,21.888,3.328,20.623,5.556c-6.035,10.627-23.296,12.823-35.345,15.034c-0.934,0.17,12.969,9.374,13.188,11.204
		c0.208,1.737-15.244,7.302-27.3-1.559c-2.924-2.149-5.545-4.209-7.916-6.192C182.651,168.721,184.565,158.545,184.57,148.029z"/>
	<path id="Wing_Left" fill="#FFFFFF" d="M71.43,148.029l-0.001-15.831c-20.14-5.794-11.712-45.926-24.995-53.853
		C30.236,68.681,11.446,58.581,11.31,60.611c-0.926,13.931,14.956,43.519,15.245,44.54c0.743,2.619-21.142-11.928-21.054-9.185
		c0.352,10.967,10.184,29.117,23.78,39.086c0,0-21.34-4.164-20.701-2.17c3.276,10.213,20.956,19.683,31.688,21.143
		c2.149,0.291-21.888,3.328-20.623,5.556c6.035,10.627,23.296,12.823,35.345,15.034c0.934,0.17-12.969,9.374-13.188,11.204
		c-0.208,1.737,15.244,7.302,27.3-1.559c2.924-2.149,5.545-4.209,7.916-6.192C73.349,168.721,71.435,158.545,71.43,148.029z"/>
	<g id="Crown">
		<polygon fill="#FFFFFF" points="127.981,48.013 127.981,48.013 127.981,48.013 133.073,50.563 133.073,45.47 127.981,48.013 
			130.527,42.924 125.435,42.924 127.981,48.013 122.888,45.47 122.888,50.563 127.981,48.013 		"/>
		<path fill="#FFFFFF" d="M127.981,51.632c0.623,0,1.235,0.041,1.847,0.078l-1.847-3.696l-1.847,3.696
			C126.746,51.673,127.358,51.632,127.981,51.632z"/>
		<path fill="#FFFFFF" d="M158.562,62.346c-1.595-0.601-3.378,0.204-3.979,1.802c-0.165,0.439-0.221,0.889-0.187,1.327
			c-0.145-0.087-0.302-0.162-0.467-0.224c-1.598-0.601-3.381,0.204-3.982,1.802c-0.601,1.598,0.204,3.378,1.802,3.982
			c0.679,0.254,1.389,0.254,2.029,0.05c-0.844,1.975-3.194,6.281-7.317,5.222c-4.281-1.101-3.722-6.052-3.722-6.052l-2.744-0.852
			c0,0-1.204,4.817-5.599,4.336c-4.233-0.461-4.912-5.32-5.004-7.466c0.525,0.419,1.19,0.671,1.917,0.671
			c1.707,0,3.087-1.383,3.087-3.09s-1.383-3.09-3.087-3.09c-0.176,0-0.346,0.017-0.517,0.048c0.187-0.397,0.293-0.841,0.293-1.308
			c0-1.707-1.383-3.09-3.087-3.09c-1.707,0-3.09,1.383-3.09,3.09c0,0.467,0.106,0.911,0.293,1.308
			c-0.168-0.028-0.338-0.048-0.517-0.048c-1.707,0-3.087,1.383-3.087,3.09s1.383,3.09,3.087,3.09c0.724,0,1.389-0.251,1.917-0.671
			c-0.092,2.149-0.774,7.005-5.004,7.466c-4.395,0.478-5.599-4.336-5.599-4.336l-2.744,0.852c0,0,0.559,4.948-3.722,6.052
			c-4.124,1.062-6.474-3.244-7.317-5.222c0.64,0.204,1.352,0.207,2.028-0.05c1.598-0.601,2.403-2.383,1.802-3.982
			c-0.601-1.598-2.383-2.403-3.979-1.802c-0.165,0.061-0.319,0.14-0.467,0.224c0.034-0.436-0.022-0.889-0.187-1.327
			c-0.601-1.598-2.383-2.403-3.979-1.802c-0.006,0.003-0.008,0.003-0.008,0.006l2.179,5.784c0.003-0.003,0.008-0.003,0.008-0.003
			l6.969,18.494l42.835-0.003l6.969-18.494c0.003,0.003,0.006,0.003,0.011,0.003l2.179-5.784c-0.006,0-0.008,0-0.011-0.003H158.562z
			"/>
		<path fill="#FFFFFF" d="M108.811,66.014c0.568,1.511,0.515,3.153-0.15,4.623c-0.406,0.899-1.012,1.668-1.763,2.259
			c0.436,0.383,0.9,0.623,1.369,0.623c0.163,0,0.341-0.024,0.527-0.072c1.613-0.416,1.571-2.317,1.523-2.859l-0.274-2.429
			l2.334-0.725l2.744-0.852l2.985-0.927l0.758,3.033c0.005,0.021,0.576,2.131,2.13,2.131c0.091,0,0.185-0.005,0.282-0.016
			c0.726-0.079,1.231-0.552,1.583-1.184c-2.443-0.776-4.218-3.066-4.218-5.764c0-2.39,1.393-4.46,3.41-5.441
			c0.515-2.815,2.986-4.955,5.947-4.955c2.96,0,5.43,2.14,5.944,4.955c2.016,0.981,3.41,3.051,3.41,5.441
			c0,2.697-1.775,4.988-4.218,5.764c0.352,0.632,0.857,1.105,1.583,1.184c0.098,0.011,0.193,0.016,0.284,0.016
			c1.523,0,2.111-2.075,2.127-2.132l0.758-3.033l2.985,0.927l2.744,0.852l2.334,0.725l-0.274,2.429
			c-0.011,0.098-0.25,2.403,1.52,2.858c0.187,0.048,0.364,0.072,0.527,0.072c0.47,0,0.936-0.241,1.374-0.627
			c-2.01-1.588-2.863-4.355-1.915-6.877c0.393-1.045,1.068-1.932,1.912-2.6c-4.069-6.138-11.998-10.305-21.113-10.305
			c-9.107,0-17.028,4.159-21.101,10.289C107.734,64.067,108.415,64.961,108.811,66.014z"/>
	</g>
	<path id="Crest" fill="#FFFFFF" d="M181.613,107.248c0-7.95-9.824-17.678-17.897-17.678h-35.717H92.281
		c-8.073,0-17.895,9.728-17.895,17.678l0.001,40.779c0.007,14.55,3.818,28.939,11.579,41.246
		c8.047,12.761,20.763,24.917,42.033,24.92c0,0,0,0,0.001,0c0.002,0,0.004,0,0.007,0c21.274,0,33.987-12.158,42.034-24.92
		c7.761-12.308,11.57-26.697,11.576-41.247L181.613,107.248z M167.539,187.697c-9.989,15.841-22.92,23.541-39.534,23.541
		c-0.002,0-0.005,0-0.007,0v-64.949H77.341v-39.04c0-6.329,8.517-14.722,14.94-14.722h35.719v53.762h50.659l0.002,1.931
		C178.62,162.573,174.776,176.22,167.539,187.697z"/>
</g>
</svg>
